HIERARCHY
ROOT Hips
{
 OFFSET 0.000000 0.000000 0.000000
 CHANNELS 6 Xposition Yposition Zposition Yrotation Xrotation Zrotation
 JOINT Chest
 {
  OFFSET 0.000000 9.585900 0.002600
  CHANNELS 3 Yrotation Xrotation Zrotation
  JOINT Chest2
  {
   OFFSET 0.000000 9.601200 -0.005300
   CHANNELS 3 Yrotation Xrotation Zrotation
   JOINT Chest3
   {
    OFFSET 0.000000 9.561800 0.000000
    CHANNELS 3 Yrotation Xrotation Zrotation
    JOINT Chest4
    {
     OFFSET 0.000000 9.552100 0.000000
     CHANNELS 3 Yrotation Xrotation Zrotation
     JOINT Neck
     {
      OFFSET 0.000000 14.453000 0.000000
      CHANNELS 3 Yrotation Xrotation Zrotation
      JOINT Head
      {
       OFFSET 0.000000 8.936500 -0.011300
       CHANNELS 3 Yrotation Xrotation Zrotation
       End Site
       {
        OFFSET 0.000000 17.073600 -0.006000
       }
      }
     }
     JOINT RightCollar
     {
      OFFSET -2.921100 9.558500 0.000000
      CHANNELS 3 Yrotation Xrotation Zrotation
      JOINT RightShoulder
      {
       OFFSET -13.519700 0.000000 0.000000
       CHANNELS 3 Yrotation Xrotation Zrotation
       JOINT RightElbow
       {
        OFFSET 0.000000 -29.696600 0.000000
        CHANNELS 3 Yrotation Xrotation Zrotation
        JOINT RightWrist
        {
         OFFSET 0.000000 -24.004700 0.000000
         CHANNELS 3 Yrotation Xrotation Zrotation
         End Site
         {
          OFFSET 0.000000 -17.728500 0.000000
         }
        }
       }
      }
     }
     JOINT LeftCollar
     {
      OFFSET 2.921100 9.558500 0.000000
      CHANNELS 3 Yrotation Xrotation Zrotation
      JOINT LeftShoulder
      {
       OFFSET 13.519700 0.000000 0.000000
       CHANNELS 3 Yrotation Xrotation Zrotation
       JOINT LeftElbow
       {
        OFFSET 0.000000 -29.696600 0.000000
        CHANNELS 3 Yrotation Xrotation Zrotation
        JOINT LeftWrist
        {
         OFFSET 0.000000 -24.004700 0.000000
         CHANNELS 3 Yrotation Xrotation Zrotation
         End Site
         {
          OFFSET 0.000000 -17.728500 0.000000
         }
        }
       }
      }
     }
    }
   }
  }
 }
 JOINT RightHip
 {
  OFFSET -7.771700 -0.012900 -0.001300
  CHANNELS 3 Yrotation Xrotation Zrotation
  JOINT RightKnee
  {
   OFFSET 0.000000 -40.869800 0.001200
   CHANNELS 3 Yrotation Xrotation Zrotation
   JOINT RightAnkle
   {
    OFFSET 0.000000 -39.717900 0.002100
    CHANNELS 3 Yrotation Xrotation Zrotation
    JOINT RightToe
    {
     OFFSET 0.000000 -4.965400 11.033500
     CHANNELS 3 Yrotation Xrotation Zrotation
     End Site
     {
      OFFSET 0.000000 -1.423100 5.872300
     }
    }
   }
  }
 }
 JOINT LeftHip
 {
  OFFSET 7.771700 -0.012900 -0.001300
  CHANNELS 3 Yrotation Xrotation Zrotation
  JOINT LeftKnee
  {
   OFFSET 0.000000 -40.869800 0.001200
   CHANNELS 3 Yrotation Xrotation Zrotation
   JOINT LeftAnkle
   {
    OFFSET 0.000000 -39.717900 0.002100
    CHANNELS 3 Yrotation Xrotation Zrotation
    JOINT LeftToe
    {
     OFFSET 0.000000 -4.965400 11.033500
     CHANNELS 3 Yrotation Xrotation Zrotation
     End Site
     {
      OFFSET 0.000000 -1.423100 5.872300
     }
    }
   }
  }
 }
}
MOTION
Frames: 11
Frame Time: 0.008333
0.000000 85.388000 0.000000 0.000000 -5.767877 0.000000 0.000000 11.653817 0.000000 0.000000 -5.885947 0.000000 0.000000 -0.000000 0.000000 0.000000 -0.000000 0.000000 0.000000 12.528835 0.000000 0.000000 0.711642 0.000000 0.000000 -0.000000 0.000000 0.000000 0.000000 -90.000000 0.000000 -2.309062 0.000000 0.000000 2.309062 0.000000 0.000000 -0.000000 0.000000 0.000000 -0.000000 90.000000 0.000000 -2.309062 0.000000 0.000000 2.309062 0.000000 0.000000 8.520406 0.000000 0.000000 1.905762 0.000000 -0.000000 -4.658285 0.000000 0.000000 -0.000000 0.000000 0.000000 8.520406 0.000000 0.000000 1.905762 0.000000 -0.000000 -4.658285 0.000000 0.000000 -0.000000 0.000000
-15.224502 57.375769 66.202462 -175.736142 -31.278070 -4.383186 2.726469 19.844656 3.780875 0.265905 2.540909 0.186332 0.436365 4.174141 0.336571 2.014656 17.313644 1.665758 -8.740054 12.602748 0.689135 -16.617509 -11.764965 4.676963 0.979493 -1.440762 -1.696314 -0.008732 -14.993860 -6.831609 119.128002 -72.015533 -116.719795 9.342035 -16.709199 -49.929860 -6.726264 -2.000619 -0.716220 24.751320 -6.979038 1.120804 130.015293 -55.076431 -148.846310 0.607125 -9.595334 17.462192 10.549746 -39.103695 -6.025057 -4.881167 66.878225 -5.090823 3.533539 5.879813 10.710760 -0.120696 0.153053 -0.042747 -8.169162 -48.104609 1.342280 28.417744 64.658282 29.260297 -20.215926 33.997402 -0.776386 0.470446 -17.244190 -4.985506
-15.228546 57.371145 66.214055 -175.719891 -31.308778 -4.410223 2.755112 19.843249 3.749049 0.250741 2.561466 0.224038 0.461518 4.174340 0.311787 2.060869 17.329670 1.649366 -8.621635 12.637521 0.694526 -16.560717 -11.732524 4.744884 0.923525 -1.430352 -1.642960 0.070005 -14.932609 -6.851583 119.150458 -71.717728 -116.468028 9.482540 -16.803052 -49.969454 -6.715493 -1.983377 -0.682785 24.686092 -6.921252 1.129469 130.332383 -55.173142 -149.091058 0.611211 -9.770611 17.695159 10.564187 -39.077922 -6.006365 -4.900072 66.875153 -5.121488 3.523252 5.891293 10.752337 -0.123477 0.149938 -0.047781 -8.132815 -48.078283 1.341092 28.346176 64.666873 29.203754 -20.201413 33.989589 -0.737686 0.473790 -17.208096 -4.999245
-15.242171 57.367515 66.223086 -175.702034 -31.370700 -4.380550 2.767441 19.883451 3.682179 0.238659 2.574123 0.241632 0.462833 4.179157 0.311684 2.115427 17.339459 1.622248 -8.510076 12.662058 0.700620 -16.435764 -11.701321 4.766769 0.932543 -1.399864 -1.648346 0.097696 -14.884766 -6.828413 119.219222 -71.449309 -116.241671 9.613914 -16.882241 -49.991553 -6.698607 -1.964918 -0.671422 24.614187 -6.873192 1.123529 130.728407 -55.277410 -149.390102 0.596953 -9.935219 17.914367 10.643694 -39.029998 -6.085752 -4.935965 66.918571 -5.160033 3.546716 5.891314 10.815758 -0.144294 0.128259 -0.060035 -8.079921 -48.023506 1.271761 28.351245 64.658695 29.194779 -20.187867 33.984802 -0.697933 0.449082 -17.178431 -5.007482
-15.268369 57.363937 66.230445 -175.669136 -31.449664 -4.277946 2.747361 19.945061 3.541953 0.226342 2.579834 0.228392 0.455501 4.191274 0.334504 2.183641 17.347102 1.601111 -8.410553 12.683842 0.715798 -16.250754 -11.671139 4.753151 0.921010 -1.391836 -1.615590 0.170748 -14.816898 -6.840782 119.315982 -71.208322 -116.024571 9.726317 -16.947016 -49.989592 -6.685411 -1.945177 -0.669217 24.537073 -6.836461 1.108558 131.218570 -55.395164 -149.753488 0.564825 -10.079263 18.119992 10.793423 -38.965256 -6.274344 -4.950667 67.005314 -5.231082 3.665786 5.871314 10.993003 -0.265851 0.079027 -0.113604 -7.950253 -47.961715 1.081177 28.359896 64.650439 29.192012 -20.227161 33.967445 -0.713103 0.472080 -17.138741 -4.997187
-15.276219 57.358425 66.241088 -175.657502 -31.497986 -4.262456 2.784967 19.966980 3.515087 0.234097 2.589138 0.222219 0.463729 4.199072 0.332575 2.222764 17.351811 1.601346 -8.297561 12.708468 0.724831 -16.037565 -11.638039 4.722329 0.919582 -1.382833 -1.585131 0.247321 -14.750091 -6.847987 119.426959 -70.999865 -115.806602 9.816551 -16.999139 -49.968904 -6.674223 -1.923496 -0.678626 24.459664 -6.810379 1.089002 131.788672 -55.527791 -150.174013 0.519147 -10.194333 18.305915 10.804210 -38.891806 -6.280325 -4.906033 66.970226 -5.265130 3.746957 5.814033 11.121368 -0.374711 0.128174 -0.155082 -7.916540 -47.914871 1.046006 28.349803 64.635866 29.173447 -20.241547 33.959922 -0.707984 0.485322 -17.095746 -5.001341
-15.281294 57.353381 66.249799 -175.656297 -31.549874 -4.247263 2.837973 19.988686 3.503433 0.292255 2.571198 0.196203 0.412500 4.230699 0.348945 2.274210 17.355076 1.603033 -8.172638 12.735567 0.727551 -15.799018 -11.602589 4.674632 0.926355 -1.373477 -1.555541 0.332859 -14.684003 -6.850421 119.543695 -70.834972 -115.580309 9.884729 -17.044025 -49.938674 -6.665978 -1.899364 -0.697426 24.390150 -6.793218 1.065440 132.404708 -55.669484 -150.636045 0.470803 -10.278969 18.477184 10.845026 -38.837941 -6.283169 -4.970476 66.962546 -5.359177 3.751946 5.814451 11.172209 -0.380605 0.132960 -0.156783 -7.890944 -47.859857 1.026183 28.361064 64.619027 29.171067 -20.256383 33.933942 -0.700997 0.493243 -17.053566 -5.006270
-15.286811 57.347237 66.258833 -175.657296 -31.586341 -4.216427 2.890431 19.993843 3.483440 0.298345 2.574118 0.194422 0.423491 4.238382 0.342985 2.313430 17.357536 1.598274 -8.038480 12.764458 0.724368 -15.540443 -11.565631 4.611972 0.935916 -1.366667 -1.524288 0.433192 -14.621660 -6.850789 119.677438 -70.725950 -115.352739 9.932353 -17.084448 -49.905739 -6.661989 -1.872541 -0.721326 24.330386 -6.784607 1.037185 133.029973 -55.812299 -151.115800 0.427906 -10.342724 18.642748 10.893034 -38.801214 -6.311385 -5.022365 66.961066 -5.435650 3.755154 5.813763 11.212232 -0.378539 0.140916 -0.159208 -7.859235 -47.819874 0.992692 28.406822 64.594685 29.185632 -20.234720 33.904868 -0.657165 0.458700 -17.011275 -5.010011
-15.286905 57.344048 66.262062 -175.609430 -31.644314 -4.235757 2.883905 20.038136 3.487495 0.337819 2.560978 0.191331 0.420363 4.244956 0.334136 2.368714 17.358586 1.593818 -7.897355 12.794537 0.715255 -15.266386 -11.527754 4.535298 0.943754 -1.364579 -1.489920 0.544053 -14.566315 -6.853897 119.865854 -70.685890 -115.148479 9.966759 -17.114159 -49.877519 -6.664399 -1.844424 -0.744725 24.279196 -6.784255 1.003645 133.636076 -55.949170 -151.585088 0.387298 -10.399056 18.808007 10.852987 -38.607649 -6.321286 -4.961625 66.797559 -5.402785 3.880863 5.516097 11.353417 -0.558455 0.442478 -0.242505 -7.901689 -47.749665 0.998305 28.410578 64.588104 29.164465 -20.209471 33.827132 -0.632612 0.444619 -16.925451 -5.014383
-15.292649 57.341253 66.263032 -175.603533 -31.707610 -4.191599 2.956505 20.059298 3.470458 0.326855 2.570679 0.189907 0.494522 4.229295 0.321804 2.352547 17.379085 1.599760 -7.751035 12.825201 0.700036 -14.980092 -11.489881 4.445092 0.949029 -1.368075 -1.453530 0.661197 -14.518858 -6.865999 120.132532 -70.724974 -114.982910 9.988930 -17.134986 -49.853144 -6.673553 -1.817476 -0.767406 24.234566 -6.790759 0.968633 134.205789 -56.074277 -152.027198 0.348350 -10.457710 18.969699 10.893274 -38.536958 -6.356031 -5.017142 66.801836 -5.492474 3.893442 5.497072 11.400411 -0.570474 0.457024 -0.249803 -7.901821 -47.669828 0.982602 28.399004 64.579614 29.094591 -20.214812 33.754882 -0.628030 0.451353 -16.846762 -5.011565
-15.294258 57.335574 66.267749 -175.596297 -31.729671 -4.164045 3.032406 20.036203 3.472378 0.318288 2.580125 0.188239 0.526145 4.225394 0.316193 2.379513 17.386810 1.595543 -7.601144 12.857019 0.679045 -14.684581 -11.450768 4.342461 0.952691 -1.376930 -1.414452 0.788691 -14.481111 -6.895923 120.476055 -70.847467 -114.856515 9.994433 -17.156302 -49.827521 -6.688153 -1.791027 -0.790399 24.190639 -6.802732 0.935018 134.731119 -56.184541 -152.436236 0.313437 -10.523957 19.124816 10.925094 -38.512506 -6.379859 -5.082090 66.802647 -5.591136 3.918292 5.486904 11.448342 -0.587501 0.467287 -0.255702 -7.885766 -47.645847 0.953503 28.389732 64.580938 29.062801 -20.170085 33.707135 -0.572159 0.416039 -16.794423 -5.032720
